<?xml version="1.0" standalone="no"?>
<svg
  width="1200"
  height="1200"
  viewBox="0 0 600 600"
  xmlns="http://www.w3.org/2000/svg"
>
  <g transform="translate(300,300)">
    <path d="M126.6,-182.5C158.5,-176.6,174.7,-131.9,189.3,-89.5C203.9,-47.2,216.8,-7.1,200.4,20.9C184.1,48.9,138.5,64.7,108.8,88.5C79.2,112.2,65.4,143.9,36,177.7C6.7,211.4,-38.2,247.2,-77.7,244.7C-117.1,242.2,-151.1,201.3,-158.1,157.1C-165,112.9,-144.9,65.4,-152.2,21.2C-159.6,-22.9,-194.4,-63.8,-193.1,-97.1C-191.7,-130.4,-154.3,-156,-116.1,-159.1C-77.9,-162.1,-38.9,-142.6,4.2,-149.2C47.4,-155.7,94.8,-188.5,126.6,-182.5Z" fill="#3e2b81" fill-opacity="0.2" />
  </g>
</svg>
  